<svg t="1759137699540" class="icon" viewBox="0 0 1024 1024" version="1.1" xmlns="http://www.w3.org/2000/svg" p-id="7362" width="200" height="200"><path d="M549.12 643.008L440.768 535.936l1.28-1.28A747.52 747.52 0 0 0 600.32 256h125.056V170.688H426.688V85.376H341.376v85.312H42.688v84.928h476.608A670.4 670.4 0 0 1 384 484.288a667.52 667.52 0 0 1-98.56-142.912H200.128a749.312 749.312 0 0 0 127.168 194.56L110.08 750.08l60.608 60.544L384 597.376l132.736 132.672 32.384-87.04z m240.256-216.32H704l-192 512h85.376l47.744-128h202.688l48.192 128h85.376l-192-512z m-111.808 298.688l69.12-184.768 69.12 184.768h-138.24z" p-id="7363" fill=""></path></svg>